Coordinates
version=1
nRows=11
nColumns=40
inDegrees=yes

Units are S.I. units (second, meters, Newtons, ...)
If the header above contains a line with 'inDegrees', this indicates whether rotational values are in degrees (yes) or radians (no).

endheader
time	pelvis_tilt	pelvis_list	pelvis_rotation	pelvis_tx	pelvis_ty	pelvis_tz	hip_flexion_r	hip_adduction_r	hip_rotation_r	knee_angle_r	knee_angle_r_beta	ankle_angle_r	subtalar_angle_r	mtp_angle_r	hip_flexion_l	hip_adduction_l	hip_rotation_l	knee_angle_l	knee_angle_l_beta	ankle_angle_l	subtalar_angle_l	mtp_angle_l	lumbar_extension	lumbar_bending	lumbar_rotation	arm_flex_r	arm_add_r	arm_rot_r	elbow_flex_r	pro_sup_r	wrist_flex_r	wrist_dev_r	arm_flex_l	arm_add_l	arm_rot_l	elbow_flex_l	pro_sup_l	wrist_flex_l	wrist_dev_l
      2.10000000	      3.14952246	     -9.40951130	      1.87287979	     -0.23516791	      1.07412603	     -1.03550047	     41.31401989	     -1.81060803	     -1.89801932	    113.05318262	      1.97315027	      0.26661281	      0.00000000	      0.00000000	      5.49831282	     -5.20081516	     -3.45214818	     20.91068145	      0.36496024	      8.19269577	      0.00000000	      0.00000000	     -5.56812903	      7.61500798	     -1.87575822	     89.56376090	    -14.73609778	     45.91761672	     29.26812097	     86.06624481	      0.00000000	      0.00000000	     89.68417722	    -23.40668273	     46.87061508	     31.06902370	     85.35254698	      0.00000000	      0.00000000
      2.10500000	      3.14007787	     -9.41441479	      1.82091920	     -0.23495612	      1.07406307	     -1.03576190	     41.19843267	     -1.79190177	     -1.87499530	    113.04498431	      1.97300718	      0.29937088	      0.00000000	      0.00000000	      5.55984088	     -5.20201778	     -3.55775703	     21.05060491	      0.36740237	      8.17792413	      0.00000000	      0.00000000	     -5.56903206	      7.61620491	     -1.84386880	     89.55876221	    -14.72998020	     45.90758300	     29.24902600	     86.15655266	      0.00000000	      0.00000000	     89.68320371	    -23.39747260	     46.80137003	     31.04425248	     85.50400319	      0.00000000	      0.00000000
      2.11000000	      3.14328454	     -9.41167234	      1.77438908	     -0.23478339	      1.07403250	     -1.03599195	     41.04880933	     -1.75794568	     -1.84937463	    113.02799052	      1.97271058	      0.30008828	      0.00000000	      0.00000000	      5.56512231	     -5.17875596	     -3.57918623	     21.09996880	      0.36826393	      8.39281032	      0.00000000	      0.00000000	     -5.58358536	      7.60670835	     -1.80014000	     89.55797052	    -14.75185472	     45.90000081	     29.27901212	     86.07690486	      0.00000000	      0.00000000	     89.68282897	    -23.37372701	     46.76192863	     31.03797302	     85.44131773	      0.00000000	      0.00000000
      2.11500000	      3.13027531	     -9.40846558	      1.73035007	     -0.23464114	      1.07397268	     -1.03622172	     40.93541233	     -1.74256167	     -1.82970304	    113.03193345	      1.97277940	      0.27265011	      0.00000000	      0.00000000	      5.58495300	     -5.15246146	     -3.57932568	     21.14623399	      0.36907141	      8.19710591	      0.00000000	      0.00000000	     -5.59270379	      7.61072644	     -1.76812989	     89.55847245	    -14.74306837	     45.90888056	     29.28954619	     86.07804816	      0.00000000	      0.00000000	     89.68172462	    -23.38811494	     46.70335239	     31.04633636	     85.49724512	      0.00000000	      0.00000000
      2.12000000	      3.08745657	     -9.43285326	      1.70850568	     -0.23447182	      1.07384846	     -1.03647769	     40.81654765	     -1.74300954	     -1.88398884	    113.02551392	      1.97266736	      0.48490907	      0.00000000	      0.00000000	      5.68563682	     -5.14906396	     -3.45284352	     21.26580468	      0.37115831	      8.01750149	      0.00000000	      0.00000000	     -5.54412536	      7.63441123	     -1.73838405	     89.56356486	    -14.86471715	     46.63618319	     29.44122947	     83.70796321	      0.00000000	      0.00000000	     89.69372904	    -23.38434271	     47.48826682	     31.00052506	     83.17959985	      0.00000000	      0.00000000
      2.12500000	      3.08447280	     -9.44626948	      1.69262704	     -0.23429283	      1.07375352	     -1.03675949	     40.67198383	     -1.73522741	     -1.89108056	    113.00612843	      1.97232902	      0.45242740	      0.00000000	      0.00000000	      5.72064934	     -5.14289084	     -3.43275068	     21.35501942	      0.37271540	      8.09047960	      0.00000000	      0.00000000	     -5.54771028	      7.64936853	     -1.73512600	     89.57495792	    -14.85960006	     46.69923658	     29.36666070	     83.63226912	      0.00000000	      0.00000000	     89.69272174	    -23.37317794	     47.46393670	     30.98895597	     82.98528783	      0.00000000	      0.00000000
      2.13000000	      3.07078006	     -9.49346317	      1.58084330	     -0.23415271	      1.07370246	     -1.03677133	     40.58087778	     -1.59227902	     -1.83869683	    113.01273728	      1.97244436	      0.31864173	      0.00000000	      0.00000000	      5.74223656	     -5.19683240	     -3.56772876	     21.43169030	      0.37405356	      8.27645813	      0.00000000	      0.00000000	     -5.58472094	      7.68221052	     -1.63322171	     89.55806043	    -14.77739364	     45.89700726	     29.31815857	     86.08628190	      0.00000000	      0.00000000	     89.67763459	    -23.35210421	     46.63098214	     31.03063702	     85.47169501	      0.00000000	      0.00000000
      2.13500000	      3.06799908	     -9.48788858	      1.52958821	     -0.23391591	      1.07361360	     -1.03696697	     40.42536933	     -1.58738116	     -1.82727141	    113.00932856	      1.97238487	      0.41963743	      0.00000000	      0.00000000	      5.75492523	     -5.17472326	     -3.59771182	     21.50234869	      0.37528678	      8.31834904	      0.00000000	      0.00000000	     -5.59089985	      7.66733081	     -1.56860799	     89.56313485	    -14.84992418	     46.04870549	     29.37113851	     86.09770543	      0.00000000	      0.00000000	     89.67593096	    -23.28705696	     46.52247544	     30.98410596	     85.52876479	      0.00000000	      0.00000000
      2.14000000	      2.92451747	     -9.48793633	      1.42317173	     -0.23310190	      1.07333297	     -1.03719056	     40.38492212	     -1.55728497	     -1.77398948	    113.03115807	      1.97276587	      0.44985287	      0.00000000	      0.00000000	      5.83938508	     -5.14730922	     -3.62814438	     21.50931486	      0.37540836	      8.43231862	      0.00000000	      0.00000000	     -5.37675299	      7.67807477	     -1.51685947	     89.52570784	    -14.81642276	     46.07967660	     29.29793931	     86.19397323	      0.00000000	      0.00000000	     89.66598259	    -23.32420300	     46.89033489	     30.89875989	     85.42304762	      0.00000000	      0.00000000
      2.14500000	      2.91012612	     -9.53352635	      1.35444666	     -0.23289678	      1.07325276	     -1.03730268	     40.26052015	     -1.47063139	     -1.76291229	    113.01661891	      1.97251211	      0.43238156	      0.00000000	      0.00000000	      5.89764037	     -5.18922805	     -3.63002921	     21.63009226	      0.37751633	      8.44918004	      0.00000000	      0.00000000	     -5.38264475	      7.72069707	     -1.44762172	     89.53477282	    -14.85367082	     46.15074034	     29.33106795	     86.11815818	      0.00000000	      0.00000000	     89.66334093	    -23.33777626	     46.85907251	     30.96703883	     85.57802362	      0.00000000	      0.00000000
      2.15000000	      2.94070341	     -9.52674832	      1.28994701	     -0.23269093	      1.07323529	     -1.03742668	     40.07647239	     -1.45747039	     -1.74149910	    113.01317043	      1.97245192	      0.44110128	      0.00000000	      0.00000000	      5.88442629	     -5.17730500	     -3.68265309	     21.71637677	      0.37902228	      8.47399095	      0.00000000	      0.00000000	     -5.43719171	      7.70875969	     -1.38299657	     89.53666359	    -14.85549530	     46.13771554	     29.34419619	     86.07609166	      0.00000000	      0.00000000	     89.66538781	    -23.33785508	     46.81661833	     30.97076467	     85.60668991	      0.00000000	      0.00000000
